<?xml version="1.0" encoding="UTF-8" standalone="no"?>
<!DOCTYPE svg PUBLIC "-//W3C//DTD SVG 1.1//EN" "http://www.w3.org/Graphics/SVG/1.1/DTD/svg11.dtd">
<svg width="100%" height="100%" viewBox="0 0 571 587" version="1.1" xmlns="http://www.w3.org/2000/svg" xmlns:xlink="http://www.w3.org/1999/xlink" xml:space="preserve" xmlns:serif="http://www.serif.com/" style="fill-rule:evenodd;clip-rule:evenodd;stroke-linejoin:round;stroke-miterlimit:2;">
    <g>
        <g transform="matrix(1,0,0,1,-0.000209903,-1.55052)">
            <path d="M299.49,266.845L495.568,266.546C495.568,266.546 511.634,267.66 515.569,285.57C516.835,291.329 515.882,323.258 514.082,338.954C512.857,349.644 506.845,381 500.147,393.642L485.534,421.377L485.567,421.75L486.055,424.363L486.82,426.336C486.82,426.336 492.631,434.872 494.067,437.394C495.502,439.915 519.241,475.959 504.265,512.692C489.784,548.212 465.855,564.08 433.355,572.12C400.357,580.283 354.832,567.694 327.736,529.264L325.271,526.311C325.271,526.311 190.804,539.31 122.577,424.827C122.577,424.827 48.862,404.68 50.542,331.691C51.814,276.439 113.495,252.004 113.495,252.004C113.495,252.004 113.854,249.096 114.193,248.012C119.108,232.261 162.319,109.136 319.031,83.564L322.409,81.772C322.409,81.772 324.747,23.123 397.059,5.333C402.143,4.082 413.159,3.976 413.533,3.982C484.802,5.05 510.102,58.34 508.434,95.171C507.455,116.791 491.361,181.63 414.524,185.233C364.008,187.602 333.964,141.177 333.742,138.917C333.742,138.917 301.021,134.184 261.208,155.493C233.538,170.303 202.537,198.923 176.618,249.22C176.618,249.22 176.736,249.781 178.156,250.343C179.996,251.072 183.078,252.08 186.659,253.789C205.226,262.648 242.131,285.539 244.903,331.424C247.845,380.124 214.075,398.662 201.71,411.585C201.71,411.585 239.519,460.871 319.548,464.305C319.548,464.305 336.346,384.709 431.16,394.223L440.265,375.465C440.265,375.465 445.48,369.861 448.33,335.522C448.33,335.522 447.713,333.281 443.194,330.846C438.675,328.41 299.351,329.048 299.351,329.048C299.351,329.048 274.658,326.428 274.705,303.205C274.751,279.981 278.716,276.301 285.04,271.206C291.364,266.11 299.49,266.845 299.49,266.845Z" style="fill:rgb(39,45,78);"/>
        </g>
        <g transform="matrix(0.300282,0,0,0.414199,-283.659,-50.9237)">
            <ellipse cx="1436.61" cy="932.807" rx="196.451" ry="134.036" style="fill:rgb(242,192,122);"/>
        </g>
        <g transform="matrix(0.300282,0,0,0.414199,-17.8547,-292.747)">
            <ellipse cx="1436.61" cy="932.807" rx="196.451" ry="134.036" style="fill:rgb(154,188,217);"/>
        </g>
        <g transform="matrix(0.300282,0,0,0.414199,-18.9582,95.4698)">
            <ellipse cx="1436.61" cy="932.807" rx="196.451" ry="134.036" style="fill:rgb(248,87,80);"/>
        </g>
    </g>
    <g id="Layer1">
    </g>
    <g id="Layer2">
    </g>
</svg>
